<svg width="76" height="48" viewBox="0 0 76 48" fill="none" xmlns="http://www.w3.org/2000/svg">
<g clip-path="url(#clip0_45_65)">
<path d="M11.5 12.5L15.5 12.5" stroke="#FF9C00" stroke-width="2"/>
<path d="M19.5 12.5L23.5 12.5" stroke="#FF9C00" stroke-width="2"/>
<path d="M27.5 12.5L31.5 12.5" stroke="#FF9C00" stroke-width="2"/>
<path d="M11.5001 11.5821L11.5 22L15.5 22L15.4999 11.5829C15.4982 11.3833 15.4727 11.1884 15.4262 11.0182L13.9258 5.53479C13.881 5.37136 13.8184 5.2364 13.7438 5.14278C13.6692 5.04916 13.5851 5 13.4997 5C13.4142 5 13.3301 5.04916 13.2555 5.14278C13.181 5.2364 13.1183 5.37136 13.0735 5.53479L11.5738 11.0182C11.5273 11.1882 11.5019 11.3828 11.5001 11.5821Z" stroke="#FF9C00" stroke-width="2" stroke-linecap="round" stroke-linejoin="round"/>
<path d="M19.5001 11.5821L19.5 22L23.5 22L23.4999 11.5829C23.4982 11.3833 23.4727 11.1884 23.4262 11.0182L21.9258 5.53479C21.881 5.37136 21.8184 5.2364 21.7438 5.14278C21.6692 5.04916 21.5851 5 21.4997 5C21.4142 5 21.3301 5.04916 21.2555 5.14278C21.181 5.2364 21.1183 5.37136 21.0735 5.53479L19.5738 11.0182C19.5273 11.1882 19.5019 11.3828 19.5001 11.5821Z" stroke="#FF9C00" stroke-width="2" stroke-linecap="round" stroke-linejoin="round"/>
<path d="M27.5001 11.5821L27.5 22L31.5 22L31.4999 11.5829C31.4982 11.3833 31.4727 11.1884 31.4262 11.0182L29.9258 5.53479C29.881 5.37136 29.8184 5.2364 29.7438 5.14278C29.6692 5.04916 29.5851 5 29.4997 5C29.4142 5 29.3301 5.04916 29.2555 5.14278C29.181 5.2364 29.1183 5.37136 29.0735 5.53479L27.5738 11.0182C27.5273 11.1882 27.5019 11.3828 27.5001 11.5821Z" stroke="#FF9C00" stroke-width="2" stroke-linecap="round" stroke-linejoin="round"/>
<path d="M35.75 21.18C35.354 21.18 35.012 21.036 34.724 20.748C34.436 20.46 34.292 20.118 34.292 19.722C34.292 19.314 34.436 18.966 34.724 18.678C35.012 18.39 35.354 18.246 35.75 18.246C36.146 18.246 36.488 18.39 36.776 18.678C37.064 18.966 37.208 19.314 37.208 19.722C37.208 20.118 37.064 20.46 36.776 20.748C36.488 21.036 36.146 21.18 35.75 21.18ZM44.5877 21.198C43.6517 21.198 42.7817 21.036 41.9777 20.712C41.1737 20.376 40.4657 19.914 39.8537 19.326C39.2417 18.726 38.7617 18.036 38.4137 17.256C38.0777 16.464 37.9097 15.612 37.9097 14.7C37.9097 13.788 38.0777 12.942 38.4137 12.162C38.7617 11.37 39.2357 10.68 39.8357 10.092C40.4357 9.492 41.1377 9.03 41.9417 8.706C42.7577 8.37 43.6277 8.202 44.5517 8.202C45.5957 8.202 46.5797 8.412 47.5037 8.832C48.4277 9.24 49.1897 9.816 49.7897 10.56L47.9717 12.234C47.5397 11.694 47.0297 11.286 46.4417 11.01C45.8537 10.734 45.2237 10.596 44.5517 10.596C43.9877 10.596 43.4657 10.704 42.9857 10.92C42.5057 11.124 42.0857 11.412 41.7257 11.784C41.3657 12.144 41.0837 12.576 40.8797 13.08C40.6877 13.572 40.5917 14.112 40.5917 14.7C40.5917 15.288 40.6937 15.834 40.8977 16.338C41.1017 16.842 41.3837 17.28 41.7437 17.652C42.1157 18.012 42.5417 18.3 43.0217 18.516C43.5137 18.72 44.0477 18.822 44.6237 18.822C45.2237 18.822 45.7637 18.714 46.2437 18.498C46.7237 18.27 47.1257 17.958 47.4497 17.562C47.7857 17.154 48.0077 16.698 48.1157 16.194H44.3897V13.926H50.9057V14.718C50.9057 15.654 50.7437 16.518 50.4197 17.31C50.1077 18.09 49.6697 18.774 49.1057 19.362C48.5417 19.938 47.8757 20.388 47.1077 20.712C46.3397 21.036 45.4997 21.198 44.5877 21.198ZM58.8787 21.198C57.9427 21.198 57.0727 21.036 56.2687 20.712C55.4647 20.376 54.7567 19.914 54.1447 19.326C53.5327 18.726 53.0527 18.036 52.7047 17.256C52.3687 16.464 52.2007 15.612 52.2007 14.7C52.2007 13.788 52.3687 12.942 52.7047 12.162C53.0527 11.37 53.5267 10.68 54.1267 10.092C54.7267 9.492 55.4287 9.03 56.2327 8.706C57.0487 8.37 57.9187 8.202 58.8427 8.202C59.8867 8.202 60.8707 8.412 61.7947 8.832C62.7187 9.24 63.4807 9.816 64.0807 10.56L62.2627 12.234C61.8307 11.694 61.3207 11.286 60.7327 11.01C60.1447 10.734 59.5147 10.596 58.8427 10.596C58.2787 10.596 57.7567 10.704 57.2767 10.92C56.7967 11.124 56.3767 11.412 56.0167 11.784C55.6567 12.144 55.3747 12.576 55.1707 13.08C54.9787 13.572 54.8827 14.112 54.8827 14.7C54.8827 15.288 54.9847 15.834 55.1887 16.338C55.3927 16.842 55.6747 17.28 56.0347 17.652C56.4067 18.012 56.8327 18.3 57.3127 18.516C57.8047 18.72 58.3387 18.822 58.9147 18.822C59.5147 18.822 60.0547 18.714 60.5347 18.498C61.0147 18.27 61.4167 17.958 61.7407 17.562C62.0767 17.154 62.2987 16.698 62.4067 16.194H58.6807V13.926H65.1967V14.718C65.1967 15.654 65.0347 16.518 64.7107 17.31C64.3987 18.09 63.9607 18.774 63.3967 19.362C62.8327 19.938 62.1667 20.388 61.3987 20.712C60.6307 21.036 59.7907 21.198 58.8787 21.198Z" fill="white"/>
<path d="M1.134 42V29.4H7.056C7.908 29.4 8.652 29.544 9.288 29.832C9.924 30.12 10.422 30.528 10.782 31.056C11.142 31.572 11.322 32.172 11.322 32.856C11.322 33.408 11.178 33.918 10.89 34.386C10.614 34.842 10.236 35.214 9.756 35.502C10.368 35.79 10.854 36.18 11.214 36.672C11.574 37.164 11.754 37.722 11.754 38.346C11.754 39.066 11.568 39.702 11.196 40.254C10.836 40.806 10.32 41.238 9.648 41.55C8.988 41.85 8.22 42 7.344 42H1.134ZM3.744 34.548H6.894C7.458 34.548 7.902 34.416 8.226 34.152C8.562 33.876 8.73 33.51 8.73 33.054C8.73 32.598 8.562 32.238 8.226 31.974C7.902 31.698 7.458 31.56 6.894 31.56H3.744V34.548ZM3.744 39.84H7.146C7.746 39.84 8.226 39.696 8.586 39.408C8.946 39.108 9.126 38.712 9.126 38.22C9.126 37.716 8.946 37.32 8.586 37.032C8.226 36.732 7.746 36.582 7.146 36.582H3.744V39.84ZM16.7536 42V31.704H12.5056V29.4H23.5936V31.704H19.3636V42H16.7536ZM25.0578 42V29.4H34.7418V31.668H27.6678V34.548H32.3298V36.744H27.6678V39.732H34.8138V42H25.0578ZM42.1311 42.18C41.1951 42.18 40.3191 42.018 39.5031 41.694C38.6871 41.358 37.9731 40.896 37.3611 40.308C36.7611 39.72 36.2871 39.036 35.9391 38.256C35.6031 37.464 35.4351 36.612 35.4351 35.7C35.4351 34.776 35.6031 33.924 35.9391 33.144C36.2871 32.352 36.7671 31.662 37.3791 31.074C37.9911 30.486 38.6991 30.03 39.5031 29.706C40.3191 29.37 41.1951 29.202 42.1311 29.202C42.8271 29.202 43.4991 29.298 44.1471 29.49C44.7951 29.682 45.3951 29.952 45.9471 30.3C46.5111 30.648 46.9911 31.068 47.3871 31.56L45.6231 33.306C45.1671 32.742 44.6391 32.316 44.0391 32.028C43.4511 31.74 42.8151 31.596 42.1311 31.596C41.5671 31.596 41.0391 31.704 40.5471 31.92C40.0551 32.124 39.6291 32.412 39.2691 32.784C38.9091 33.144 38.6271 33.576 38.4231 34.08C38.2191 34.572 38.1171 35.112 38.1171 35.7C38.1171 36.276 38.2191 36.816 38.4231 37.32C38.6271 37.812 38.9151 38.244 39.2871 38.616C39.6591 38.976 40.0911 39.258 40.5831 39.462C41.0871 39.666 41.6331 39.768 42.2211 39.768C42.8811 39.768 43.4991 39.63 44.0751 39.354C44.6511 39.078 45.1611 38.682 45.6051 38.166L47.3151 39.858C46.9191 40.338 46.4451 40.752 45.8931 41.1C45.3411 41.448 44.7411 41.718 44.0931 41.91C43.4571 42.09 42.8031 42.18 42.1311 42.18ZM48.841 42V29.4H51.451V34.476H57.247V29.4H59.857V42H57.247V36.834H51.451V42H48.841ZM68.3217 42.198C67.3857 42.198 66.5157 42.036 65.7117 41.712C64.9077 41.376 64.1997 40.914 63.5877 40.326C62.9877 39.726 62.5137 39.036 62.1657 38.256C61.8297 37.464 61.6617 36.612 61.6617 35.7C61.6617 34.788 61.8297 33.942 62.1657 33.162C62.5137 32.37 62.9877 31.68 63.5877 31.092C64.1997 30.492 64.9077 30.03 65.7117 29.706C66.5157 29.37 67.3857 29.202 68.3217 29.202C69.2577 29.202 70.1277 29.37 70.9317 29.706C71.7477 30.03 72.4557 30.492 73.0557 31.092C73.6677 31.68 74.1417 32.37 74.4777 33.162C74.8137 33.942 74.9817 34.788 74.9817 35.7C74.9817 36.612 74.8137 37.464 74.4777 38.256C74.1417 39.036 73.6677 39.726 73.0557 40.326C72.4557 40.914 71.7477 41.376 70.9317 41.712C70.1277 42.036 69.2577 42.198 68.3217 42.198ZM68.3217 39.804C68.8977 39.804 69.4257 39.702 69.9057 39.498C70.3857 39.282 70.8057 38.994 71.1657 38.634C71.5257 38.262 71.8077 37.824 72.0117 37.32C72.2157 36.816 72.3177 36.276 72.3177 35.7C72.3177 35.112 72.2157 34.572 72.0117 34.08C71.8077 33.576 71.5257 33.144 71.1657 32.784C70.8057 32.412 70.3857 32.124 69.9057 31.92C69.4257 31.704 68.8977 31.596 68.3217 31.596C67.7577 31.596 67.2357 31.704 66.7557 31.92C66.2757 32.124 65.8557 32.412 65.4957 32.784C65.1357 33.144 64.8537 33.576 64.6497 34.08C64.4457 34.572 64.3437 35.106 64.3437 35.682C64.3437 36.27 64.4457 36.816 64.6497 37.32C64.8537 37.824 65.1357 38.262 65.4957 38.634C65.8557 38.994 66.2757 39.282 66.7557 39.498C67.2357 39.702 67.7577 39.804 68.3217 39.804Z" fill="white"/>
</g>
<defs>
<clipPath id="clip0_45_65">
<rect width="76" height="48" fill="white"/>
</clipPath>
</defs>
</svg>
