<svg width="24" height="24" viewBox="0 0 24 24" fill="none" xmlns="http://www.w3.org/2000/svg">
<path d="M2 13L6 13" stroke="#FF9C00" stroke-width="2"/>
<path d="M10 13L14 13" stroke="#FF9C00" stroke-width="2"/>
<path d="M18 13L22 13" stroke="#FF9C00" stroke-width="2"/>
<path d="M2.0001 11.5821L2 22L6 22L5.9999 11.5829C5.99816 11.3833 5.97274 11.1884 5.92625 11.0182L4.42579 5.53479C4.38105 5.37136 4.31838 5.2364 4.24378 5.14278C4.16918 5.04916 4.08514 5 3.99967 5C3.91419 5 3.83015 5.04916 3.75555 5.14278C3.68095 5.2364 3.61829 5.37136 3.57354 5.53479L2.07375 11.0182C2.02732 11.1882 2.0019 11.3828 2.0001 11.5821Z" stroke="#FF9C00" stroke-width="2" stroke-linecap="round" stroke-linejoin="round"/>
<path d="M10.0001 11.5821L10 22L14 22L13.9999 11.5829C13.9982 11.3833 13.9727 11.1884 13.9262 11.0182L12.4258 5.53479C12.381 5.37136 12.3184 5.2364 12.2438 5.14278C12.1692 5.04916 12.0851 5 11.9997 5C11.9142 5 11.8301 5.04916 11.7555 5.14278C11.681 5.2364 11.6183 5.37136 11.5735 5.53479L10.0738 11.0182C10.0273 11.1882 10.0019 11.3828 10.0001 11.5821Z" stroke="#FF9C00" stroke-width="2" stroke-linecap="round" stroke-linejoin="round"/>
<path d="M18.0001 11.5821L18 22L22 22L21.9999 11.5829C21.9982 11.3833 21.9727 11.1884 21.9262 11.0182L20.4258 5.53479C20.381 5.37136 20.3184 5.2364 20.2438 5.14278C20.1692 5.04916 20.0851 5 19.9997 5C19.9142 5 19.8301 5.04916 19.7555 5.14278C19.681 5.2364 19.6183 5.37136 19.5735 5.53479L18.0738 11.0182C18.0273 11.1882 18.0019 11.3828 18.0001 11.5821Z" stroke="#FF9C00" stroke-width="2" stroke-linecap="round" stroke-linejoin="round"/>
</svg>
